<?xml version="1.0" standalone="no"?>
<!DOCTYPE svg PUBLIC "-//W3C//DTD SVG 20010904//EN"
 "http://www.w3.org/TR/2001/REC-SVG-20010904/DTD/svg10.dtd">
<svg version="1.0" xmlns="http://www.w3.org/2000/svg"
 width="577.000000pt" height="433.000000pt" viewBox="0 0 577.000000 433.000000"
 preserveAspectRatio="xMidYMid meet">

<g transform="translate(0.000000,433.000000) scale(0.100000,-0.100000)"
fill="#000000" stroke="none">
<path d="M2498 2548 c-2 -156 1 -292 6 -303 12 -25 102 -150 173 -237 66 -81
115 -108 197 -108 79 0 137 17 178 50 19 16 74 84 122 153 l88 123 -2 294 c0
162 -3 296 -5 298 -2 3 -34 -6 -70 -19 -98 -34 -161 -96 -236 -230 -34 -61
-66 -108 -73 -106 -6 2 -38 52 -71 110 -79 139 -136 198 -227 231 -38 14 -71
26 -73 26 -3 0 -6 -127 -7 -282z m452 -240 c73 -50 89 -143 36 -212 -87 -115
-269 -27 -242 117 18 96 129 147 206 95z"/>
<path d="M2425 1908 c-44 -33 -111 -76 -150 -94 -65 -32 -240 -78 -256 -68
-14 8 -19 -30 -19 -150 0 -82 4 -126 12 -134 9 -9 88 -12 294 -12 238 0 283 2
294 15 9 11 11 56 8 172 -5 174 -24 247 -77 303 l-26 28 -80 -60z"/>
<path d="M3245 1937 c-8 -12 -30 -71 -50 -130 -31 -97 -35 -120 -35 -216 0
-70 4 -111 12 -119 17 -17 569 -17 586 0 8 8 12 50 12 124 0 110 -5 148 -19
140 -14 -9 -183 34 -243 61 -34 15 -104 58 -155 95 l-93 67 -15 -22z"/>
</g>
</svg>
